<svg xmlns="http://www.w3.org/2000/svg" xmlns:xlink="http://www.w3.org/1999/xlink" preserveAspectRatio="xMidYMid meet" viewBox="0 0 256 256" style="-ms-transform: rotate(360deg); -webkit-transform: rotate(360deg); transform: rotate(360deg);"><path d="M128 24a104 104 0 1 0 104 104A104.118 104.118 0 0 0 128 24zm28.624 144.657a8 8 0 0 1-10.736 3.567a39.983 39.983 0 0 0-35.852.04a8 8 0 1 1-7.201-14.287a55.975 55.975 0 0 1 50.222-.056a8 8 0 0 1 3.567 10.736zm14.797-28.306a8.002 8.002 0 0 1-10.762 3.49a71.941 71.941 0 0 0-65.402.042a8 8 0 1 1-7.29-14.242a87.94 87.94 0 0 1 79.965-.052a8 8 0 0 1 3.49 10.762zm14.827-28.365a8 8 0 0 1-10.772 3.458a104.19 104.19 0 0 0-95.037.045a8 8 0 1 1-7.329-14.222a120.193 120.193 0 0 1 109.681-.053a8 8 0 0 1 3.457 10.772z" /><rect x="0" y="0" width="256" height="256" fill="rgba(0, 0, 0, 0)" /></svg>