<?xml version="1.0" encoding="UTF-8" standalone="no"?>
<svg
   xmlns:dc="http://purl.org/dc/elements/1.1/"
   xmlns:cc="http://creativecommons.org/ns#"
   xmlns:rdf="http://www.w3.org/1999/02/22-rdf-syntax-ns#"
   xmlns:svg="http://www.w3.org/2000/svg"
   xmlns="http://www.w3.org/2000/svg"
   xmlns:sodipodi="http://sodipodi.sourceforge.net/DTD/sodipodi-0.dtd"
   xmlns:inkscape="http://www.inkscape.org/namespaces/inkscape"
   clip-rule="evenodd"
   fill-rule="evenodd"
   viewBox="0 0 560 400"
   version="1.1"
   id="svg8"
   sodipodi:docname="yandex-music-seeklogo.com.svg"
   inkscape:version="1.0.2 (e86c870879, 2021-01-15)">
  <metadata
     id="metadata14">
    <rdf:RDF>
      <cc:Work
         rdf:about="">
        <dc:format>image/svg+xml</dc:format>
        <dc:type
           rdf:resource="http://purl.org/dc/dcmitype/StillImage" />
      </cc:Work>
    </rdf:RDF>
  </metadata>
  <defs
     id="defs12" />
  <sodipodi:namedview
     pagecolor="#ffffff"
     bordercolor="#666666"
     borderopacity="1"
     objecttolerance="10"
     gridtolerance="10"
     guidetolerance="10"
     inkscape:pageopacity="0"
     inkscape:pageshadow="2"
     inkscape:window-width="1902"
     inkscape:window-height="873"
     id="namedview10"
     showgrid="false"
     inkscape:zoom="1.6917353"
     inkscape:cx="280"
     inkscape:cy="198.81778"
     inkscape:window-x="0"
     inkscape:window-y="0"
     inkscape:window-maximized="0"
     inkscape:current-layer="svg8" />
  <g
     transform="matrix(7.169 0 0 7.169 179.905 78.282)"
     id="g6"
     style="fill:#808080">
    <ellipse
       cx="13.61"
       cy="20.377"
       fill="#fc0"
       rx="13.597"
       ry="13.581"
       id="ellipse2"
       style="fill:#808080" />
    <path
       d="m20.419 6.535v12.704l-.03.01v.017c0 1.242-.09 2.401-.259 2.993-.81 2.845-3.431 4.909-6.539 4.909-3.755 0-6.759-3.03-6.759-6.781 0-3.75 3.004-6.78 6.759-6.78 1.769 0 3.38.675 4.59 1.781.395.362.747.769 1.048 1.214-.084-.398-.166-.899-.166-1.328v-15.274l8.849 2.708v6.133z"
       fill="#f33"
       id="path4"
       style="fill:#808080" />
  </g>
  <path
     style="fill:#280b0b;stroke-width:0.591109"
     d="m 271.24737,272.38602 c -25.03102,-3.37054 -43.37402,-25.49964 -41.87232,-50.51499 1.298,-21.62204 15.18162,-38.5374 36.43973,-44.39696 5.87388,-1.61907 17.75776,-1.4949 23.8656,0.24937 9.75207,2.78499 18.71615,8.48184 24.51458,15.57951 1.80006,2.20339 3.3729,3.9061 3.49521,3.78379 0.12231,-0.1223 -0.073,-2.30984 -0.43404,-4.8612 -0.45349,-3.20479 -0.60314,-21.46675 -0.48411,-59.07376 l 0.17229,-54.434924 31.32878,9.5828 31.32878,9.582799 0.15506,21.651095 c 0.0853,11.90811 0.0853,21.65064 0,21.65008 -0.0853,-5.6e-4 -12.12502,-3.68248 -26.75497,-8.18204 l -26.5999,-8.18101 -0.35152,51.48077 c -0.24892,36.45672 -0.56566,52.86084 -1.08533,56.20965 -2.52479,16.27016 -14.42888,30.86079 -30.0642,36.84913 -7.49059,2.8689 -16.3771,4.00571 -23.65364,3.02589 z"
     id="path16" />
</svg>
